<svg width="75" height="74" viewBox="0 0 75 74" fill="none" xmlns="http://www.w3.org/2000/svg">
<path d="M37.5 0.5C57.9409 0.5 74.5 16.8479 74.5 37C74.5 57.1521 57.9409 73.5 37.5 73.5C17.0591 73.5 0.5 57.1521 0.5 37C0.5 16.8479 17.0591 0.5 37.5 0.5Z" stroke="white"/>
<path fill-rule="evenodd" clip-rule="evenodd" d="M15.2119 59.9666C20.2666 53.0583 28.4975 48.5625 37.7927 48.5625C46.9398 48.5625 55.0564 52.9164 60.1298 59.6382C54.3107 65.3015 46.3189 68.7969 37.4997 68.7969C28.8521 68.7969 21 65.4362 15.2119 59.9666ZM50.3903 29.7734C50.3903 36.9575 44.7502 42.7812 37.7927 42.7812C30.8352 42.7812 25.195 36.9575 25.195 29.7734C25.195 22.5894 30.8352 16.7656 37.7927 16.7656C44.7502 16.7656 50.3903 22.5894 50.3903 29.7734Z" fill="white"/>
</svg>
