<svg width="20" height="20" viewBox="0 0 20 20" fill="none" xmlns="http://www.w3.org/2000/svg">
<path d="M12.5002 16.666H7.50016M3.3335 11.4995V6.83284C3.3335 5.89942 3.3335 5.43237 3.51515 5.07585C3.67494 4.76224 3.92972 4.50746 4.24333 4.34767C4.59985 4.16602 5.0669 4.16602 6.00033 4.16602H14.0003C14.9337 4.16602 15.3998 4.16602 15.7563 4.34767C16.0699 4.50746 16.3256 4.76224 16.4854 5.07585C16.6668 5.43202 16.6668 5.89851 16.6668 6.83011V11.5019C16.6668 12.4335 16.6668 12.8993 16.4854 13.2555C16.3256 13.5691 16.0699 13.8247 15.7563 13.9845C15.4002 14.166 14.9343 14.166 14.0027 14.166H5.99759C5.06599 14.166 4.5995 14.166 4.24333 13.9845C3.92972 13.8247 3.67494 13.5691 3.51515 13.2555C3.3335 12.899 3.3335 12.4329 3.3335 11.4995Z" stroke="black" stroke-linecap="round" stroke-linejoin="round"/>
</svg>
