<svg width="24" height="24" viewBox="0 0 24 24" fill="none" xmlns="http://www.w3.org/2000/svg">
<g clip-path="url(#clip0_185_238)">
<path d="M17.4862 -0.000586885C16.1249 0.091288 14.668 0.901288 13.7662 1.99441C12.9768 2.95629 12.3149 4.36816 12.5662 5.83441C12.3412 5.76504 12.1368 5.75754 11.8912 5.66941C11.2218 5.43129 10.4568 5.17441 9.50616 5.17441C7.61803 5.17441 5.68491 6.29754 4.46616 8.17441C2.69241 10.9007 3.04866 15.6988 5.74116 19.7994C6.21554 20.5194 6.76866 21.305 7.45116 21.9294C8.13366 22.5538 8.95866 23.03 9.92616 23.0394C10.753 23.0488 11.3287 22.7732 11.8462 22.5444C12.3637 22.3157 12.8455 22.1132 13.7512 22.1094C13.7568 22.1094 13.7605 22.1094 13.7662 22.1094C14.668 22.1019 15.1349 22.3007 15.6412 22.5294C16.1474 22.7582 16.7174 23.0469 17.5462 23.0394C18.5324 23.0319 19.3705 22.4919 20.0662 21.8244C20.7618 21.1569 21.3337 20.3375 21.8062 19.6194C22.483 18.5882 22.7549 18.0257 23.2762 16.8744C23.3305 16.7544 23.3324 16.6157 23.2799 16.4938C23.2293 16.3719 23.1299 16.2763 23.0062 16.2294C21.2999 15.5844 20.3268 14.075 20.1862 12.4794C20.0455 10.8838 20.7205 9.24129 22.4212 8.30941C22.5468 8.24191 22.6349 8.12379 22.6649 7.98504C22.693 7.84629 22.6593 7.70004 22.5712 7.58941C21.3505 6.07254 19.633 5.17441 17.9512 5.17441C16.8787 5.17441 16.0912 5.42754 15.4462 5.66941C15.3393 5.71066 15.2605 5.70691 15.1612 5.74441C15.8155 5.39941 16.393 4.92129 16.8262 4.36441C17.6137 3.35379 18.2212 1.91566 17.9962 0.404413C17.9587 0.156913 17.7355 -0.0193369 17.4862 -0.000586885ZM16.9762 1.13941C16.9443 2.10879 16.6124 3.05754 16.0612 3.76441C15.4837 4.50691 14.5124 5.02066 13.5712 5.17441C13.588 4.24254 13.9555 3.27691 14.5162 2.59441C15.1049 1.88191 16.0799 1.36816 16.9762 1.13941ZM9.50616 6.13441C9.92616 6.13441 10.9012 6.33504 11.5612 6.56941C12.2212 6.80379 12.9168 7.07941 13.7362 7.07941C14.5368 7.07941 15.1705 6.80191 15.7912 6.56941C16.4118 6.33691 17.0305 6.13441 17.9512 6.13441C19.153 6.13441 20.4524 6.75879 21.4762 7.84441C19.8374 9.00129 19.0705 10.805 19.2262 12.5544C19.3818 14.3225 20.4468 16.0007 22.1962 16.8744C22.1937 16.8799 22.1912 16.8853 22.1887 16.8907C21.8141 17.7066 21.5644 18.2507 21.0112 19.0944C20.5518 19.7938 20.0062 20.5588 19.4062 21.1344C18.8062 21.71 18.1705 22.0738 17.5312 22.0794C16.9143 22.085 16.5637 21.9013 16.0312 21.6594C15.4987 21.4175 14.8105 21.14 13.7512 21.1494C12.6937 21.155 11.9962 21.4213 11.4562 21.6594C10.9162 21.8975 10.5618 22.085 9.94116 22.0794C9.28491 22.0738 8.67554 21.755 8.09616 21.2244C7.51679 20.6938 6.99366 19.97 6.53616 19.2744C4.01616 15.4344 3.81366 10.9232 5.26116 8.69941C6.32241 7.06629 9.08616 6.13441 9.50616 6.13441Z" fill="black"/>
<path d="M9.50616 6.13441C9.92616 6.13441 10.9012 6.33504 11.5612 6.56941C12.2212 6.80379 12.9168 7.07941 13.7362 7.07941C14.5368 7.07941 15.1705 6.80191 15.7912 6.56941C16.4118 6.33691 17.0305 6.13441 17.9512 6.13441C19.153 6.13441 20.4524 6.75879 21.4762 7.84441C19.8374 9.00129 19.0705 10.805 19.2262 12.5544C19.3818 14.3225 20.4468 16.0007 22.1962 16.8744L22.1887 16.8907C21.8141 17.7066 21.5644 18.2507 21.0112 19.0944C20.5518 19.7938 20.0062 20.5588 19.4062 21.1344C18.8062 21.71 18.1705 22.0738 17.5312 22.0794C16.9143 22.085 16.5637 21.9013 16.0312 21.6594C15.4987 21.4175 14.8105 21.14 13.7512 21.1494C12.6937 21.155 11.9962 21.4213 11.4562 21.6594C10.9162 21.8975 10.5618 22.085 9.94116 22.0794C9.28491 22.0738 8.67554 21.755 8.09616 21.2244C7.51679 20.6938 6.99366 19.97 6.53616 19.2744C4.01616 15.4344 3.81366 10.9232 5.26116 8.69941C6.32241 7.06629 9.08616 6.13441 9.50616 6.13441Z" fill="black"/>
<path d="M16.9762 1.13941C16.9443 2.10879 16.6124 3.05754 16.0612 3.76441C15.4837 4.50691 14.5124 5.02066 13.5712 5.17441C13.588 4.24254 13.9555 3.27691 14.5162 2.59441C15.1049 1.88191 16.0799 1.36816 16.9762 1.13941Z" fill="black"/>
</g>
<defs>
<clipPath id="clip0_185_238">
<rect width="24" height="24" fill="white"/>
</clipPath>
</defs>
</svg>
