<svg width="20" height="20" viewBox="0 0 20 20" fill="none" xmlns="http://www.w3.org/2000/svg">
<path d="M7.69198 7.5H6.00008C5.06666 7.5 4.5996 7.5 4.24308 7.68166C3.92948 7.84144 3.6747 8.09623 3.51491 8.40983C3.33325 8.76635 3.33325 9.23341 3.33325 10.1668V14.8335C3.33325 15.7669 3.33325 16.2334 3.51491 16.5899C3.6747 16.9035 3.92948 17.1587 4.24308 17.3185C4.59925 17.5 5.06577 17.5 5.99737 17.5H14.0025C14.9341 17.5 15.3999 17.5 15.7561 17.3185C16.0697 17.1587 16.3253 16.9035 16.4851 16.5899C16.6666 16.2337 16.6666 15.7679 16.6666 14.8363V10.1641C16.6666 9.23249 16.6666 8.766 16.4851 8.40983C16.3253 8.09623 16.0697 7.84144 15.7561 7.68166C15.3996 7.5 14.9335 7.5 14.0001 7.5H12.3074M7.69198 7.5H12.3074M7.69198 7.5C7.58577 7.5 7.49992 7.4139 7.49992 7.30769V5C7.49992 3.61929 8.61921 2.5 9.99992 2.5C11.3806 2.5 12.4999 3.61929 12.4999 5V7.30769C12.4999 7.4139 12.4136 7.5 12.3074 7.5" stroke="black" stroke-linecap="round" stroke-linejoin="round"/>
</svg>
