<svg width="20" height="20" viewBox="0 0 20 20" fill="none" xmlns="http://www.w3.org/2000/svg">
<path d="M3.33333 4.99935L8.42303 8.8429L8.42473 8.84431C8.98987 9.25875 9.27261 9.4661 9.5823 9.54619C9.85602 9.61699 10.1438 9.61699 10.4175 9.54619C10.7274 9.46602 11.011 9.25808 11.5771 8.8429C11.5771 8.8429 14.8417 6.33763 16.6667 4.99935M2.5 13.1662V6.83284C2.5 5.89942 2.5 5.43237 2.68166 5.07585C2.84144 4.76224 3.09623 4.50746 3.40983 4.34767C3.76635 4.16602 4.23341 4.16602 5.16683 4.16602H14.8335C15.7669 4.16602 16.233 4.16602 16.5895 4.34767C16.9031 4.50746 17.1587 4.76224 17.3185 5.07585C17.5 5.43202 17.5 5.89851 17.5 6.83011V13.169C17.5 14.1006 17.5 14.5664 17.3185 14.9226C17.1587 15.2362 16.9031 15.4914 16.5895 15.6512C16.2333 15.8327 15.7675 15.8327 14.8359 15.8327H5.16409C4.2325 15.8327 3.766 15.8327 3.40983 15.6512C3.09623 15.4914 2.84144 15.2362 2.68166 14.9226C2.5 14.5661 2.5 14.0996 2.5 13.1662Z" stroke="black" stroke-linecap="round" stroke-linejoin="round"/>
</svg>
