<svg width="20" height="20" viewBox="0 0 20 20" fill="none" xmlns="http://www.w3.org/2000/svg">
<path d="M13.6275 13.5325C11.5671 14.8092 10.3845 17.2253 10 17.9173V6.66732C10.3207 6.09002 11.1969 4.51292 12.6747 3.32126C13.4668 2.68249 13.8629 2.3631 14.4314 2.63501C15 2.90692 15 3.51643 15 4.73544V11.4087C15 12.0595 15 12.3848 14.8737 12.6117C14.7474 12.8385 14.3741 13.0698 13.6275 13.5325Z" stroke="white" stroke-linecap="round" stroke-linejoin="round"/>
<path d="M9.99935 6.50463C9.42694 5.90336 7.76748 4.47533 4.98315 3.97465C3.5726 3.721 2.86732 3.59418 2.26667 4.08027C1.66602 4.56637 1.66602 5.35573 1.66602 6.93444V12.6081C1.66602 14.0516 1.66602 14.7733 2.05151 15.224C2.43701 15.6746 3.28572 15.8272 4.98315 16.1324C6.49629 16.4045 7.67722 16.8381 8.532 17.2737C9.373 17.7023 9.79352 17.9167 9.99935 17.9167C10.2052 17.9167 10.6257 17.7023 11.4667 17.2737C12.3215 16.8381 13.5024 16.4045 15.0155 16.1324C16.713 15.8272 17.5617 15.6746 17.9472 15.224C18.3327 14.7733 18.3327 14.0516 18.3327 12.6081V6.93444C18.3327 5.35573 18.3327 4.56637 17.732 4.08027C17.1314 3.59418 15.8327 3.97465 14.9993 4.58333" stroke="white" stroke-linecap="round" stroke-linejoin="round"/>
</svg>
