<svg width="20" height="20" viewBox="0 0 20 20" fill="none" xmlns="http://www.w3.org/2000/svg">
<path d="M11.6663 8.33333V14.1667M8.33301 8.33333V14.1667M4.99967 5V14.8333C4.99967 15.7668 4.99967 16.2331 5.18133 16.5897C5.34112 16.9033 5.5959 17.1587 5.90951 17.3185C6.26568 17.5 6.73217 17.5 7.66377 17.5H12.3356C13.2672 17.5 13.733 17.5 14.0892 17.3185C14.4028 17.1587 14.6584 16.9033 14.8182 16.5897C14.9997 16.2335 14.9997 15.7675 14.9997 14.8359V5M4.99967 5H6.66634M4.99967 5H3.33301M6.66634 5H13.333M6.66634 5C6.66634 4.22343 6.66634 3.83534 6.79321 3.52905C6.96237 3.12067 7.28661 2.79602 7.69499 2.62687C8.00127 2.5 8.38977 2.5 9.16634 2.5H10.833C11.6096 2.5 11.9979 2.5 12.3041 2.62687C12.7125 2.79602 13.0369 3.12067 13.2061 3.52905C13.3329 3.83534 13.333 4.22343 13.333 5M13.333 5H14.9997M14.9997 5H16.6663" stroke="#FF0000" stroke-linecap="round" stroke-linejoin="round"/>
</svg>
