<svg width="18" height="18" viewBox="0 0 18 18" fill="none" xmlns="http://www.w3.org/2000/svg">
<path d="M2.25004 12.7501C2.25 12.7016 2.25 12.6517 2.25 12.6001V5.40015C2.25 4.56007 2.25 4.13972 2.41349 3.81885C2.5573 3.5366 2.7866 3.3073 3.06885 3.16349C3.38972 3 3.81007 3 4.65015 3H13.3501C14.1902 3 14.61 3 14.9309 3.16349C15.2132 3.3073 15.4429 3.5366 15.5867 3.81885C15.75 4.1394 15.75 4.55925 15.75 5.39768V12.6023C15.75 12.9661 15.75 13.2509 15.7367 13.4831M2.25004 12.7501C2.25062 13.4913 2.26003 13.8794 2.41349 14.1805C2.5573 14.4628 2.7866 14.6929 3.06885 14.8367C3.3894 15 3.80925 15 4.64768 15H13.3527C14.1911 15 14.6104 15 14.9309 14.8367C15.2132 14.6929 15.4429 14.4628 15.5867 14.1805C15.6791 13.9991 15.7193 13.786 15.7367 13.4831M2.25004 12.7501L5.82598 8.57812L5.82704 8.57697C6.1442 8.20695 6.30305 8.02163 6.49145 7.95483C6.65696 7.89616 6.83765 7.89753 7.00232 7.9585C7.18998 8.02797 7.34629 8.21541 7.65894 8.59058L9.66231 10.9946C9.95171 11.3419 10.0973 11.5166 10.274 11.5867C10.4298 11.6485 10.6017 11.6555 10.7626 11.608C10.9456 11.554 11.1068 11.3928 11.4291 11.0706L11.8019 10.6978C12.13 10.3696 12.2941 10.2057 12.4798 10.1521C12.6429 10.105 12.8172 10.1151 12.9741 10.1799C13.1528 10.2537 13.2976 10.4343 13.5875 10.7966L15.7367 13.4831M15.7367 13.4831L15.75 13.4997M11.25 7.5C10.8358 7.5 10.5 7.16421 10.5 6.75C10.5 6.33579 10.8358 6 11.25 6C11.6642 6 12 6.33579 12 6.75C12 7.16421 11.6642 7.5 11.25 7.5Z" stroke="white" stroke-opacity="0.7" stroke-linecap="round" stroke-linejoin="round"/>
</svg>
