<svg width="35" height="35" viewBox="0 0 35 35" fill="none" xmlns="http://www.w3.org/2000/svg">
<path d="M8.75 10.5009V24.3335C8.75 26.3183 8.75 27.3106 9.04767 27.9179C9.5994 29.0436 10.8085 29.6905 12.0512 29.5252C12.7216 29.436 13.5474 28.8855 15.1989 27.7845L15.2029 27.7818C15.8575 27.3454 16.1848 27.1272 16.5272 27.0062C17.1561 26.7839 17.8424 26.7839 18.4713 27.0062C18.8144 27.1274 19.143 27.3465 19.8003 27.7847C21.4518 28.8857 22.2785 29.4358 22.9489 29.525C24.1915 29.6903 25.4006 29.0436 25.9524 27.9179C26.25 27.3106 26.25 26.318 26.25 24.3335V10.4961C26.25 8.86585 26.25 8.04949 25.9324 7.42619C25.6528 6.87738 25.2054 6.43151 24.6566 6.15188C24.0327 5.83398 23.2171 5.83398 21.5836 5.83398H13.417C11.7835 5.83398 10.9661 5.83398 10.3422 6.15188C9.7934 6.43151 9.34753 6.87738 9.0679 7.42619C8.75 8.0501 8.75 8.86745 8.75 10.5009Z" fill="white" stroke="white" stroke-width="2" stroke-linecap="round" stroke-linejoin="round"/>
</svg>
