<svg width="35" height="35" viewBox="0 0 35 35" fill="none" xmlns="http://www.w3.org/2000/svg">
<path d="M20.4168 14.5833V24.7917M14.5835 14.5833V24.7917M8.75016 8.75V25.9583C8.75016 27.5918 8.75016 28.408 9.06806 29.0319C9.34769 29.5807 9.79356 30.0278 10.3424 30.3074C10.9657 30.625 11.782 30.625 13.4123 30.625H21.588C23.2183 30.625 24.0335 30.625 24.6568 30.3074C25.2056 30.0278 25.6529 29.5807 25.9326 29.0319C26.2502 28.4086 26.2502 27.5931 26.2502 25.9628V8.75M8.75016 8.75H11.6668M8.75016 8.75H5.8335M11.6668 8.75H23.3335M11.6668 8.75C11.6668 7.391 11.6668 6.71184 11.8888 6.17584C12.1849 5.46118 12.7523 4.89304 13.467 4.59702C14.003 4.375 14.6828 4.375 16.0418 4.375H18.9585C20.3175 4.375 20.997 4.375 21.533 4.59702C22.2477 4.89304 22.8153 5.46118 23.1113 6.17584C23.3333 6.71184 23.3335 7.39101 23.3335 8.75M23.3335 8.75H26.2502M26.2502 8.75H29.1668" stroke="white" stroke-width="2" stroke-linecap="round" stroke-linejoin="round"/>
</svg>
