<svg width="35" height="35" viewBox="0 0 35 35" fill="none" xmlns="http://www.w3.org/2000/svg">
<path d="M14.5838 5.83268H10.5004C8.86696 5.83268 8.04961 5.83268 7.4257 6.15058C6.87689 6.43021 6.43102 6.87608 6.15139 7.42489C5.8335 8.0488 5.8335 8.86615 5.8335 10.4996V24.4996C5.8335 26.1331 5.8335 26.9494 6.15139 27.5733C6.43102 28.1222 6.87689 28.5688 7.4257 28.8484C8.049 29.166 8.86536 29.166 10.4957 29.166H24.5047C26.135 29.166 26.9501 29.166 27.5734 28.8484C28.1223 28.5688 28.5696 28.1217 28.8492 27.5729C29.1668 26.9496 29.1668 26.1341 29.1668 24.5039V20.416M23.3335 7.29102L14.5835 16.041V20.416H18.9585L27.7085 11.666M23.3335 7.29102L27.7085 2.91602L32.0835 7.29102L27.7085 11.666M23.3335 7.29102L27.7085 11.666" stroke="white" stroke-width="2" stroke-linecap="round" stroke-linejoin="round"/>
</svg>
