<svg width="28" height="28" viewBox="0 0 28 28" fill="none" xmlns="http://www.w3.org/2000/svg">
<path d="M5.83334 22.7502V7.23356C5.83334 5.92677 5.83334 5.27289 6.08765 4.77376C6.31136 4.33472 6.66805 3.97802 7.1071 3.75432C7.60623 3.5 8.26011 3.5 9.5669 3.5H20.3002C20.9536 3.5 21.2808 3.5 21.5303 3.62716C21.7499 3.73901 21.9272 3.91736 22.0391 4.13688C22.1662 4.38645 22.1667 4.71339 22.1667 5.36678V19.1334C22.1667 19.7868 22.1662 20.1131 22.0391 20.3626C21.9272 20.5822 21.7501 20.7611 21.5306 20.873C21.2813 21 20.9545 21 20.3024 21H8.45834C7.00859 21 5.83334 22.1753 5.83334 23.625C5.83334 24.1082 6.22509 24.5 6.70834 24.5H19.1357C19.7878 24.5 20.1146 24.5 20.3639 24.373C20.5834 24.2611 20.7605 24.0823 20.8724 23.8628C20.9996 23.6132 21 23.2867 21 22.6333V21" stroke="white" stroke-width="2" stroke-linecap="round" stroke-linejoin="round"/>
</svg>
