<svg width="24" height="24" viewBox="0 0 24 24" fill="none" xmlns="http://www.w3.org/2000/svg">
<g clip-path="url(#clip0_254_603)">
<path d="M18.0684 4.36035L17.7021 4.25879C17.6212 4.2363 17.5303 4.21512 17.4346 4.19531C17.2177 4.15046 16.9546 4.10841 16.6787 4.07227C16.1047 3.99707 15.438 3.94238 14.959 3.94238C13.0793 3.94244 11.5722 4.34341 10.4893 5.25293C9.17164 6.35972 8.60156 8.11491 8.60156 10.4199V11.5H6.12695V16.167H8.60156V22.9863C3.90949 21.5367 0.500004 17.1673 0.5 12C0.5 5.64874 5.64874 0.5 12 0.5C18.3513 0.500005 23.5 5.64874 23.5 12C23.5 17.6848 19.3743 22.4053 13.9541 23.333V16.167H17.1162L17.1914 15.7568L17.8652 12.0898L17.9736 11.5H13.9541V10.7031C13.9541 9.78087 14.1385 9.2784 14.4307 8.99121C14.7251 8.702 15.2412 8.51954 16.1816 8.51953C16.4275 8.51953 16.6531 8.52251 16.8516 8.52734C17.1429 8.53444 17.368 8.54599 17.5156 8.56152L18.0684 8.62012V4.36035Z" fill="white" stroke="white"/>
</g>
<defs>
<clipPath id="clip0_254_603">
<rect width="24" height="24" fill="white"/>
</clipPath>
</defs>
</svg>
