<svg width="20" height="20" viewBox="0 0 20 20" fill="none" xmlns="http://www.w3.org/2000/svg">
<path d="M4.16666 8.26904C4.16666 12.3122 7.70372 15.6558 9.26931 16.9377C9.49338 17.1211 9.60675 17.214 9.77391 17.261C9.90408 17.2977 10.0957 17.2977 10.2258 17.261C10.3933 17.2139 10.5059 17.122 10.7308 16.9378C12.2964 15.6559 15.8333 12.3126 15.8333 8.26941C15.8333 6.73932 15.2187 5.27171 14.1247 4.18977C13.0308 3.10783 11.5472 2.5 10.0001 2.5C8.45296 2.5 6.96916 3.10792 5.8752 4.18986C4.78124 5.2718 4.16666 6.73895 4.16666 8.26904Z" stroke="white" stroke-width="1.5" stroke-linecap="round" stroke-linejoin="round"/>
<path d="M8.33332 7.5C8.33332 8.42047 9.07952 9.16667 9.99999 9.16667C10.9205 9.16667 11.6667 8.42047 11.6667 7.5C11.6667 6.57953 10.9205 5.83333 9.99999 5.83333C9.07952 5.83333 8.33332 6.57953 8.33332 7.5Z" stroke="white" stroke-width="1.5" stroke-linecap="round" stroke-linejoin="round"/>
</svg>
