<svg width="28" height="28" viewBox="0 0 28 28" fill="none" xmlns="http://www.w3.org/2000/svg">
<path d="M11.6669 4.66732H8.40022C7.09343 4.66732 6.43955 4.66732 5.94042 4.92164C5.50137 5.14534 5.14468 5.50204 4.92097 5.94108C4.66666 6.44021 4.66666 7.09409 4.66666 8.40088V19.6009C4.66666 20.9077 4.66666 21.5607 4.92097 22.0598C5.14468 22.4989 5.50137 22.8562 5.94042 23.0799C6.43906 23.334 7.09215 23.334 8.39638 23.334H19.6036C20.9078 23.334 21.56 23.334 22.0586 23.0799C22.4977 22.8562 22.8555 22.4986 23.0793 22.0595C23.3333 21.5609 23.3333 20.9085 23.3333 19.6043V16.334M18.6667 5.83398L11.6667 12.834V16.334H15.1667L22.1667 9.33398M18.6667 5.83398L22.1667 2.33398L25.6667 5.83398L22.1667 9.33398M18.6667 5.83398L22.1667 9.33398" stroke="white" stroke-width="2" stroke-linecap="round" stroke-linejoin="round"/>
</svg>
