<svg width="28" height="28" viewBox="0 0 28 28" fill="none" xmlns="http://www.w3.org/2000/svg">
<path d="M10.5 12.8327V23.3327M10.5 12.8327H5.36621C4.71282 12.8327 4.38645 12.8327 4.13688 12.9598C3.91736 13.0717 3.73901 13.25 3.62716 13.4696C3.5 13.7191 3.5 14.0461 3.5 14.6995V23.3327H10.5M10.5 12.8327V6.5328C10.5 5.8794 10.5 5.55246 10.6272 5.3029C10.739 5.08337 10.9174 4.90503 11.1369 4.79317C11.3864 4.66602 11.7128 4.66602 12.3662 4.66602H15.6329C16.2863 4.66602 16.6137 4.66602 16.8632 4.79317C17.0827 4.90503 17.2605 5.08337 17.3724 5.3029C17.4996 5.55246 17.5 5.8794 17.5 6.5328V9.33268M10.5 23.3327H17.5M17.5 23.3327L24.5 23.3328V11.1995C24.5 10.5461 24.4996 10.2191 24.3724 9.96956C24.2605 9.75004 24.0834 9.57169 23.8639 9.45984C23.6143 9.33268 23.2867 9.33268 22.6333 9.33268H17.5M17.5 23.3327V9.33268" stroke="white" stroke-width="2" stroke-linecap="round" stroke-linejoin="round"/>
</svg>
