<svg width="28" height="28" viewBox="0 0 28 28" fill="none" xmlns="http://www.w3.org/2000/svg">
<path d="M17.4993 21.0004L15.5654 19.0666M15.1671 3.50102C15.0556 3.5 14.9303 3.5 14.7872 3.5H9.56689C8.2601 3.5 7.60622 3.5 7.10709 3.75432C6.66805 3.97802 6.31135 4.33472 6.08765 4.77376C5.83333 5.27289 5.83333 5.92677 5.83333 7.23356V20.7669C5.83333 22.0737 5.83333 22.7267 6.08765 23.2259C6.31135 23.6649 6.66805 24.0222 7.10709 24.2459C7.60573 24.5 8.25883 24.5 9.56309 24.5L18.4369 24.5C19.7412 24.5 20.3933 24.5 20.892 24.2459C21.331 24.0222 21.6889 23.6649 21.9126 23.2259C22.1667 22.7272 22.1667 22.0751 22.1667 20.7708V10.88C22.1667 10.7369 22.1665 10.6115 22.1655 10.5M15.1671 3.50102C15.5001 3.50405 15.71 3.51641 15.9112 3.56472C16.1493 3.62187 16.3775 3.71614 16.5863 3.84408C16.8217 3.98833 17.0238 4.19045 17.4271 4.59375L21.0735 8.24015C21.477 8.6437 21.6777 8.84492 21.822 9.08039C21.9499 9.28916 22.0446 9.5168 22.1017 9.75488C22.15 9.95608 22.1625 10.167 22.1655 10.5M15.1671 3.50102L15.1667 6.76691C15.1667 8.0737 15.1667 8.72684 15.421 9.22597C15.6447 9.66502 16.0014 10.0222 16.4404 10.2459C16.9391 10.5 17.5922 10.5 18.8964 10.5H22.1655M13.4167 19.8333C11.8058 19.8333 10.5 18.5275 10.5 16.9167C10.5 15.3058 11.8058 14 13.4167 14C15.0275 14 16.3333 15.3058 16.3333 16.9167C16.3333 18.5275 15.0275 19.8333 13.4167 19.8333Z" stroke="white" stroke-width="2" stroke-linecap="round" stroke-linejoin="round"/>
</svg>
